<svg xmlns="http://www.w3.org/2000/svg" width="1200" height="850" viewBox="0 0 1200 850" role="img" aria-label="Property floorplan">
  <rect width="1200" height="850" fill="#f6f8f8"/>
  <rect x="92" y="76" width="1016" height="698" rx="18" fill="#fff" stroke="#2f4650" stroke-width="10"/>
  <path d="M430 76v286M430 466v308M760 76v698M92 362h338M540 362h220M760 362h348M92 574h338M430 574h330" fill="none" stroke="#2f4650" stroke-width="8" stroke-linecap="round"/>
  <path d="M430 466c-68 0-104-36-104-104M540 362c0 64-38 104-110 104M760 362c58 0 94 36 94 94" fill="none" stroke="#ff6600" stroke-width="7" stroke-linecap="round"/>
  <g fill="#2f4650" font-family="Inter, Arial, sans-serif" font-weight="700">
    <text x="160" y="220" font-size="34">Bedroom</text>
    <text x="520" y="220" font-size="34">Kitchen</text>
    <text x="855" y="220" font-size="34">Living Room</text>
    <text x="160" y="690" font-size="34">Bedroom</text>
    <text x="536" y="690" font-size="34">Bathroom</text>
    <text x="855" y="690" font-size="34">Hall</text>
  </g>
  <g fill="none" stroke="#9fb0b6" stroke-width="5">
    <rect x="148" y="254" width="188" height="76" rx="10"/>
    <rect x="154" y="616" width="190" height="76" rx="10"/>
    <rect x="520" y="120" width="160" height="72" rx="8"/>
    <rect x="533" y="626" width="132" height="86" rx="12"/>
    <rect x="848" y="118" width="204" height="92" rx="12"/>
  </g>
  <text x="92" y="824" fill="#66737b" font-family="Inter, Arial, sans-serif" font-size="22">Illustrative floorplan for gallery preview</text>
</svg>
