<svg xmlns="http://www.w3.org/2000/svg" xmlns:xlink="http://www.w3.org/1999/xlink" width="2000" zoomAndPan="magnify" viewBox="0 0 1500 487.499991" height="650" preserveAspectRatio="xMidYMid meet" version="1.0"><defs><g/><clipPath id="0cc424d5d7"><path d="M 24.0625 102.039062 L 78.652344 102.039062 L 78.652344 372 L 24.0625 372 Z M 24.0625 102.039062 " clip-rule="nonzero"/></clipPath><clipPath id="f10cf90ab1"><path d="M 29.304688 102.039062 L 73.410156 102.039062 C 74.800781 102.039062 76.132812 102.59375 77.117188 103.574219 C 78.101562 104.558594 78.652344 105.894531 78.652344 107.285156 L 78.652344 366.628906 C 78.652344 368.023438 78.101562 369.355469 77.117188 370.339844 C 76.132812 371.324219 74.800781 371.875 73.410156 371.875 L 29.304688 371.875 C 27.914062 371.875 26.582031 371.324219 25.597656 370.339844 C 24.613281 369.355469 24.0625 368.023438 24.0625 366.628906 L 24.0625 107.285156 C 24.0625 105.894531 24.613281 104.558594 25.597656 103.574219 C 26.582031 102.59375 27.914062 102.039062 29.304688 102.039062 Z M 29.304688 102.039062 " clip-rule="nonzero"/></clipPath><clipPath id="88829d8c78"><path d="M 0.0625 0.0390625 L 54.652344 0.0390625 L 54.652344 270 L 0.0625 270 Z M 0.0625 0.0390625 " clip-rule="nonzero"/></clipPath><clipPath id="564c20afdb"><path d="M 5.304688 0.0390625 L 49.410156 0.0390625 C 50.800781 0.0390625 52.132812 0.59375 53.117188 1.574219 C 54.101562 2.558594 54.652344 3.894531 54.652344 5.285156 L 54.652344 264.628906 C 54.652344 266.023438 54.101562 267.355469 53.117188 268.339844 C 52.132812 269.324219 50.800781 269.875 49.410156 269.875 L 5.304688 269.875 C 3.914062 269.875 2.582031 269.324219 1.597656 268.339844 C 0.613281 267.355469 0.0625 266.023438 0.0625 264.628906 L 0.0625 5.285156 C 0.0625 3.894531 0.613281 2.558594 1.597656 1.574219 C 2.582031 0.59375 3.914062 0.0390625 5.304688 0.0390625 Z M 5.304688 0.0390625 " clip-rule="nonzero"/></clipPath><clipPath id="cc9e0defc2"><rect x="0" width="55" y="0" height="270"/></clipPath><clipPath id="c2b1f3c87e"><path d="M 189.472656 102.039062 L 253.238281 102.039062 L 253.238281 372 L 189.472656 372 Z M 189.472656 102.039062 " clip-rule="nonzero"/></clipPath><clipPath id="a37afa8fd4"><path d="M 194.714844 102.039062 L 247.996094 102.039062 C 249.386719 102.039062 250.71875 102.59375 251.703125 103.574219 C 252.6875 104.558594 253.238281 105.894531 253.238281 107.285156 L 253.238281 366.628906 C 253.238281 368.023438 252.6875 369.355469 251.703125 370.339844 C 250.71875 371.324219 249.386719 371.875 247.996094 371.875 L 194.714844 371.875 C 193.324219 371.875 191.992188 371.324219 191.007812 370.339844 C 190.023438 369.355469 189.472656 368.023438 189.472656 366.628906 L 189.472656 107.285156 C 189.472656 105.894531 190.023438 104.558594 191.007812 103.574219 C 191.992188 102.59375 193.324219 102.039062 194.714844 102.039062 Z M 194.714844 102.039062 " clip-rule="nonzero"/></clipPath><clipPath id="18827306f1"><path d="M 0.472656 0.0390625 L 64.238281 0.0390625 L 64.238281 270 L 0.472656 270 Z M 0.472656 0.0390625 " clip-rule="nonzero"/></clipPath><clipPath id="68b6e34209"><path d="M 5.714844 0.0390625 L 58.996094 0.0390625 C 60.386719 0.0390625 61.71875 0.59375 62.703125 1.574219 C 63.6875 2.558594 64.238281 3.894531 64.238281 5.285156 L 64.238281 264.628906 C 64.238281 266.023438 63.6875 267.355469 62.703125 268.339844 C 61.71875 269.324219 60.386719 269.875 58.996094 269.875 L 5.714844 269.875 C 4.324219 269.875 2.992188 269.324219 2.007812 268.339844 C 1.023438 267.355469 0.472656 266.023438 0.472656 264.628906 L 0.472656 5.285156 C 0.472656 3.894531 1.023438 2.558594 2.007812 1.574219 C 2.992188 0.59375 4.324219 0.0390625 5.714844 0.0390625 Z M 5.714844 0.0390625 " clip-rule="nonzero"/></clipPath><clipPath id="7e7fef6c87"><rect x="0" width="65" y="0" height="270"/></clipPath><clipPath id="9337b78a72"><path d="M 48 180 L 163 180 L 163 279 L 48 279 Z M 48 180 " clip-rule="nonzero"/></clipPath><clipPath id="9442fa3c38"><path d="M 136.023438 177.816406 L 165.03125 235.933594 L 75.351562 280.6875 L 46.347656 222.570312 Z M 136.023438 177.816406 " clip-rule="nonzero"/></clipPath><clipPath id="226f16ae54"><path d="M 139.371094 184.519531 L 161.683594 229.230469 C 163.53125 232.933594 162.027344 237.433594 158.324219 239.28125 L 82.0625 277.339844 C 78.359375 279.1875 73.859375 277.683594 72.011719 273.984375 L 49.699219 229.269531 C 47.851562 225.566406 49.355469 221.070312 53.054688 219.222656 L 129.320312 181.160156 C 133.023438 179.3125 137.523438 180.816406 139.371094 184.519531 Z M 139.371094 184.519531 " clip-rule="nonzero"/></clipPath><clipPath id="bc13c405b0"><path d="M 0 0 L 115 0 L 115 99 L 0 99 Z M 0 0 " clip-rule="nonzero"/></clipPath><clipPath id="99bb154027"><path d="M 88.023438 -2.183594 L 117.03125 55.933594 L 27.351562 100.6875 L -1.652344 42.570312 Z M 88.023438 -2.183594 " clip-rule="nonzero"/></clipPath><clipPath id="8b736d1258"><path d="M 91.371094 4.519531 L 113.683594 49.230469 C 115.53125 52.933594 114.027344 57.433594 110.324219 59.28125 L 34.0625 97.339844 C 30.359375 99.1875 25.859375 97.683594 24.011719 93.984375 L 1.699219 49.269531 C -0.148438 45.566406 1.355469 41.070312 5.054688 39.222656 L 81.320312 1.160156 C 85.023438 -0.6875 89.523438 0.816406 91.371094 4.519531 Z M 91.371094 4.519531 " clip-rule="nonzero"/></clipPath><clipPath id="4529f43d56"><rect x="0" width="115" y="0" height="99"/></clipPath><clipPath id="af5186b45c"><path d="M 104 180 L 219 180 L 219 279 L 104 279 Z M 104 180 " clip-rule="nonzero"/></clipPath><clipPath id="bd112d1ea7"><path d="M 221.316406 219.820312 L 193.085938 280.792969 L 101.742188 238.503906 L 129.972656 177.53125 Z M 221.316406 219.820312 " clip-rule="nonzero"/></clipPath><clipPath id="6a1d3cbfdd"><path d="M 217.820312 226.746094 L 195.996094 273.886719 C 194.257812 277.640625 189.804688 279.277344 186.050781 277.535156 L 108.644531 241.699219 C 104.886719 239.960938 103.253906 235.507812 104.992188 231.753906 L 126.816406 184.613281 C 128.554688 180.859375 133.007812 179.222656 136.761719 180.960938 L 214.167969 216.800781 C 217.925781 218.539062 219.558594 222.992188 217.820312 226.746094 Z M 217.820312 226.746094 " clip-rule="nonzero"/></clipPath><clipPath id="87149f125b"><path d="M 0 0 L 115 0 L 115 99 L 0 99 Z M 0 0 " clip-rule="nonzero"/></clipPath><clipPath id="56e165884a"><path d="M 117.316406 39.820312 L 89.085938 100.792969 L -2.257812 58.503906 L 25.972656 -2.46875 Z M 117.316406 39.820312 " clip-rule="nonzero"/></clipPath><clipPath id="eb87bca074"><path d="M 113.820312 46.746094 L 91.996094 93.886719 C 90.257812 97.640625 85.804688 99.277344 82.050781 97.535156 L 4.644531 61.699219 C 0.886719 59.960938 -0.746094 55.507812 0.992188 51.753906 L 22.816406 4.613281 C 24.554688 0.859375 29.007812 -0.777344 32.761719 0.960938 L 110.167969 36.800781 C 113.925781 38.539062 115.558594 42.992188 113.820312 46.746094 Z M 113.820312 46.746094 " clip-rule="nonzero"/></clipPath><clipPath id="54c2690298"><rect x="0" width="115" y="0" height="99"/></clipPath><clipPath id="f2c7a47515"><path d="M 14.09375 102.039062 L 78.652344 102.039062 L 78.652344 371.882812 L 14.09375 371.882812 Z M 14.09375 102.039062 " clip-rule="nonzero"/></clipPath><clipPath id="e0a9193471"><path d="M 19.335938 102.039062 L 73.410156 102.039062 C 74.800781 102.039062 76.132812 102.59375 77.117188 103.574219 C 78.101562 104.558594 78.652344 105.894531 78.652344 107.285156 L 78.652344 366.628906 C 78.652344 368.023438 78.101562 369.355469 77.117188 370.339844 C 76.132812 371.324219 74.800781 371.875 73.410156 371.875 L 19.335938 371.875 C 17.945312 371.875 16.613281 371.324219 15.628906 370.339844 C 14.644531 369.355469 14.09375 368.023438 14.09375 366.628906 L 14.09375 107.285156 C 14.09375 105.894531 14.644531 104.558594 15.628906 103.574219 C 16.613281 102.59375 17.945312 102.039062 19.335938 102.039062 Z M 19.335938 102.039062 " clip-rule="nonzero"/></clipPath><clipPath id="ab144af827"><path d="M 0.09375 0.0390625 L 64.652344 0.0390625 L 64.652344 269.882812 L 0.09375 269.882812 Z M 0.09375 0.0390625 " clip-rule="nonzero"/></clipPath><clipPath id="d9a31e5dc2"><path d="M 5.335938 0.0390625 L 59.410156 0.0390625 C 60.800781 0.0390625 62.132812 0.59375 63.117188 1.574219 C 64.101562 2.558594 64.652344 3.894531 64.652344 5.285156 L 64.652344 264.628906 C 64.652344 266.023438 64.101562 267.355469 63.117188 268.339844 C 62.132812 269.324219 60.800781 269.875 59.410156 269.875 L 5.335938 269.875 C 3.945312 269.875 2.613281 269.324219 1.628906 268.339844 C 0.644531 267.355469 0.09375 266.023438 0.09375 264.628906 L 0.09375 5.285156 C 0.09375 3.894531 0.644531 2.558594 1.628906 1.574219 C 2.613281 0.59375 3.945312 0.0390625 5.335938 0.0390625 Z M 5.335938 0.0390625 " clip-rule="nonzero"/></clipPath><clipPath id="4f5d85728f"><rect x="0" width="65" y="0" height="270"/></clipPath></defs><g fill="#3e535b" fill-opacity="1"><g transform="translate(55.843845, 373.414408)"><g/></g></g><g fill="#3e535b" fill-opacity="1"><g transform="translate(121.046615, 373.414408)"><g/></g></g><g fill="#3e535b" fill-opacity="1"><g transform="translate(186.249398, 373.414408)"><g/></g></g><g fill="#3e535b" fill-opacity="1"><g transform="translate(251.455584, 373.414408)"><g><path d="M 27.109375 0 L 27.109375 -204.03125 L 93.40625 -204.03125 L 93.40625 0 Z M 57.140625 -228.59375 C 46.515625 -228.59375 37.753906 -231.796875 30.859375 -238.203125 C 23.960938 -244.609375 20.515625 -252.757812 20.515625 -262.65625 C 20.515625 -269.375 22.34375 -275.539062 26 -281.15625 C 29.664062 -286.769531 34.519531 -291.253906 40.5625 -294.609375 C 46.601562 -297.972656 53.226562 -299.65625 60.4375 -299.65625 C 71.300781 -299.65625 80.0625 -296.507812 86.71875 -290.21875 C 93.375 -283.925781 96.703125 -275.710938 96.703125 -265.578125 C 96.703125 -255.566406 92.851562 -246.898438 85.15625 -239.578125 C 77.46875 -232.253906 68.128906 -228.59375 57.140625 -228.59375 Z M 57.140625 -228.59375 "/></g></g></g><g fill="#3e535b" fill-opacity="1"><g transform="translate(371.97078, 373.414408)"><g><path d="M 29.3125 0 L 29.3125 -272.171875 L 96.703125 -272.171875 L 96.703125 -54.953125 L 188.65625 -54.953125 L 188.65625 0 Z M 29.3125 0 "/></g></g></g><g fill="#3e535b" fill-opacity="1"><g transform="translate(571.24208, 373.414408)"><g><path d="M 29.3125 0 L 29.3125 -272.171875 L 96.703125 -272.171875 L 96.703125 -54.953125 L 188.65625 -54.953125 L 188.65625 0 Z M 29.3125 0 "/></g></g></g><g fill="#3e535b" fill-opacity="1"><g transform="translate(744.871912, 373.414408)"><g><path d="M 77.65625 0 L 77.65625 -219.78125 L 5.125 -219.78125 L 5.125 -272.171875 L 219.0625 -272.171875 L 219.0625 -219.78125 L 146.53125 -219.78125 L 146.53125 0 Z M 77.65625 0 "/></g></g></g><g fill="#3e535b" fill-opacity="1"><g transform="translate(969.052095, 373.414408)"><g><path d="M 97.4375 0 L 29.3125 0 L 29.3125 -272.171875 C 31.875 -272.171875 34.46875 -272.171875 37.09375 -272.171875 C 39.71875 -272.171875 42.34375 -272.171875 44.96875 -272.171875 C 47.59375 -272.171875 50.1875 -272.171875 52.75 -272.171875 C 62.519531 -272.171875 73.785156 -272.65625 86.546875 -273.625 C 99.304688 -274.601562 115.390625 -275.09375 134.796875 -275.09375 C 146.765625 -275.09375 158.734375 -273.78125 170.703125 -271.15625 C 182.671875 -268.53125 193.597656 -264.015625 203.484375 -257.609375 C 213.378906 -251.203125 221.316406 -242.378906 227.296875 -231.140625 C 233.273438 -219.910156 236.265625 -205.75 236.265625 -188.65625 C 236.265625 -170.09375 233.179688 -154.796875 227.015625 -142.765625 C 220.847656 -130.742188 212.332031 -121.460938 201.46875 -114.921875 C 190.601562 -108.390625 178.023438 -104.023438 163.734375 -101.828125 C 158.972656 -100.972656 154.210938 -100.117188 149.453125 -99.265625 C 144.691406 -98.410156 138.375 -97.707031 130.5 -97.15625 C 122.625 -96.613281 111.601562 -96.34375 97.4375 -96.34375 Z M 97.4375 -143.59375 C 99.882812 -143.226562 103.179688 -142.921875 107.328125 -142.671875 C 111.484375 -142.429688 115.695312 -142.28125 119.96875 -142.21875 C 124.238281 -142.15625 127.84375 -142.125 130.78125 -142.125 C 144.695312 -142.125 154.828125 -146.550781 161.171875 -155.40625 C 167.523438 -164.257812 170.703125 -174.972656 170.703125 -187.546875 C 170.703125 -194.265625 169.507812 -200.644531 167.125 -206.6875 C 164.75 -212.738281 160.351562 -217.65625 153.9375 -221.4375 C 147.53125 -225.21875 138.34375 -227.109375 126.375 -227.109375 C 121.488281 -227.109375 116.507812 -226.832031 111.4375 -226.28125 C 106.375 -225.738281 101.707031 -224.914062 97.4375 -223.8125 Z M 179.5 0 C 178.03125 -1.832031 176.65625 -4.0625 175.375 -6.6875 C 174.09375 -9.3125 172.171875 -13.554688 169.609375 -19.421875 C 165.941406 -27.597656 162.640625 -36.171875 159.703125 -45.140625 C 156.773438 -54.117188 153.816406 -62.515625 150.828125 -70.328125 C 147.835938 -78.140625 144.390625 -84.519531 140.484375 -89.46875 C 136.578125 -94.414062 131.753906 -96.953125 126.015625 -97.078125 L 141.765625 -109.53125 L 184.984375 -115.390625 C 191.828125 -112.335938 197.78125 -107.332031 202.84375 -100.375 C 207.914062 -93.414062 212.554688 -85.382812 216.765625 -76.28125 C 220.972656 -67.1875 225.148438 -57.722656 229.296875 -47.890625 C 233.453125 -38.066406 238.097656 -28.695312 243.234375 -19.78125 C 245.066406 -16.476562 246.957031 -13.175781 248.90625 -9.875 C 250.863281 -6.582031 252.757812 -3.289062 254.59375 0 Z M 179.5 0 "/></g></g></g><g fill="#3e535b" fill-opacity="1"><g transform="translate(1225.10105, 373.414408)"><g><path d="M 141.390625 2.9375 C 114.535156 3.414062 91.613281 -2.050781 72.625 -13.46875 C 53.632812 -24.882812 39.222656 -41.179688 29.390625 -62.359375 C 19.566406 -83.546875 14.898438 -108.550781 15.390625 -137.375 C 15.992188 -169.601562 21.941406 -195.695312 33.234375 -215.65625 C 44.535156 -235.625 59.953125 -250.335938 79.484375 -259.796875 C 99.023438 -269.265625 121.375 -274.363281 146.53125 -275.09375 C 172.289062 -275.832031 194.390625 -270.613281 212.828125 -259.4375 C 231.265625 -248.269531 245.335938 -232.179688 255.046875 -211.171875 C 264.753906 -190.171875 269.363281 -165.328125 268.875 -136.640625 C 268.257812 -104.398438 262.519531 -78.082031 251.65625 -57.6875 C 240.789062 -37.300781 225.894531 -22.222656 206.96875 -12.453125 C 188.039062 -2.679688 166.179688 2.445312 141.390625 2.9375 Z M 142.5 -46.15625 C 160.082031 -46.15625 173.941406 -53.265625 184.078125 -67.484375 C 194.210938 -81.710938 199.28125 -105.375 199.28125 -138.46875 C 199.28125 -155.5625 197.320312 -170.578125 193.40625 -183.515625 C 189.5 -196.460938 183.578125 -206.535156 175.640625 -213.734375 C 167.703125 -220.941406 157.628906 -224.546875 145.421875 -224.546875 C 134.316406 -224.546875 124.179688 -221.796875 115.015625 -216.296875 C 105.859375 -210.804688 98.5625 -201.585938 93.125 -188.640625 C 87.695312 -175.703125 84.984375 -158 84.984375 -135.53125 C 84.984375 -118.195312 87.117188 -102.8125 91.390625 -89.375 C 95.671875 -75.945312 102.050781 -65.382812 110.53125 -57.6875 C 119.019531 -50 129.675781 -46.15625 142.5 -46.15625 Z M 142.5 -46.15625 "/></g></g></g><g clip-path="url(#0cc424d5d7)"><g clip-path="url(#f10cf90ab1)"><g transform="matrix(1, 0, 0, 1, 24, 102)"><g clip-path="url(#cc9e0defc2)"><g clip-path="url(#88829d8c78)"><g clip-path="url(#564c20afdb)"><path fill="#3e535b" d="M 0.0625 0.0390625 L 54.652344 0.0390625 L 54.652344 269.804688 L 0.0625 269.804688 Z M 0.0625 0.0390625 " fill-opacity="1" fill-rule="nonzero"/></g></g></g></g></g></g><g clip-path="url(#c2b1f3c87e)"><g clip-path="url(#a37afa8fd4)"><g transform="matrix(1, 0, 0, 1, 189, 102)"><g clip-path="url(#7e7fef6c87)"><g clip-path="url(#18827306f1)"><g clip-path="url(#68b6e34209)"><path fill="#3e535b" d="M 0.472656 0.0390625 L 64.238281 0.0390625 L 64.238281 269.804688 L 0.472656 269.804688 Z M 0.472656 0.0390625 " fill-opacity="1" fill-rule="nonzero"/></g></g></g></g></g></g><g clip-path="url(#9337b78a72)"><g clip-path="url(#9442fa3c38)"><g clip-path="url(#226f16ae54)"><g transform="matrix(1, 0, 0, 1, 48, 180)"><g clip-path="url(#4529f43d56)"><g clip-path="url(#bc13c405b0)"><g clip-path="url(#99bb154027)"><g clip-path="url(#8b736d1258)"><path fill="#3e535b" d="M 88.023438 -2.183594 L 117.03125 55.933594 L 27.351562 100.6875 L -1.652344 42.570312 Z M 88.023438 -2.183594 " fill-opacity="1" fill-rule="nonzero"/></g></g></g></g></g></g></g></g><g clip-path="url(#af5186b45c)"><g clip-path="url(#bd112d1ea7)"><g clip-path="url(#6a1d3cbfdd)"><g transform="matrix(1, 0, 0, 1, 104, 180)"><g clip-path="url(#54c2690298)"><g clip-path="url(#87149f125b)"><g clip-path="url(#56e165884a)"><g clip-path="url(#eb87bca074)"><path fill="#3e535b" d="M 116.96875 39.945312 L 88.847656 100.683594 L -2.257812 58.503906 L 25.863281 -2.234375 Z M 116.96875 39.945312 " fill-opacity="1" fill-rule="nonzero"/></g></g></g></g></g></g></g></g><g clip-path="url(#f2c7a47515)"><g clip-path="url(#e0a9193471)"><g transform="matrix(1, 0, 0, 1, 14, 102)"><g clip-path="url(#4f5d85728f)"><g clip-path="url(#ab144af827)"><g clip-path="url(#d9a31e5dc2)"><path fill="#3e535b" d="M 0.09375 0.0390625 L 64.652344 0.0390625 L 64.652344 269.882812 L 0.09375 269.882812 Z M 0.09375 0.0390625 " fill-opacity="1" fill-rule="nonzero"/></g></g></g></g></g></g></svg>