<svg xmlns="http://www.w3.org/2000/svg" xmlns:xlink="http://www.w3.org/1999/xlink" width="2000" zoomAndPan="magnify" viewBox="0 0 1500 487.499991" height="650" preserveAspectRatio="xMidYMid meet" version="1.0"><defs><g/><clipPath id="047a0b5641"><rect x="0" width="893" y="0" height="469"/></clipPath><clipPath id="47d08e5108"><path d="M 166 62 L 471 62 L 471 359 L 166 359 Z M 166 62 " clip-rule="nonzero"/></clipPath><clipPath id="cb1537aa89"><path d="M 303.878906 511.171875 L 76.628906 253.058594 L 391.542969 -24.195312 L 618.789062 233.921875 Z M 303.878906 511.171875 " clip-rule="nonzero"/></clipPath><clipPath id="d0807feb1d"><path d="M 538.292969 777.433594 L 76.375 252.765625 L 391.285156 -24.484375 L 853.207031 500.183594 Z M 538.292969 777.433594 " clip-rule="nonzero"/></clipPath><clipPath id="afc5e517d1"><path d="M 538.292969 777.433594 L 76.375 252.765625 L 391.285156 -24.484375 L 853.207031 500.183594 Z M 538.292969 777.433594 " clip-rule="nonzero"/></clipPath><clipPath id="4cf1ed269a"><path d="M 275.175781 376.980469 L 148.710938 233.335938 L 362.582031 45.042969 L 489.046875 188.6875 Z M 275.175781 376.980469 " clip-rule="nonzero"/></clipPath><clipPath id="6bfa8bd5a0"><path d="M 246.34375 343.636719 L 177.644531 265.605469 C 170.054688 256.984375 166.195312 245.691406 166.929688 234.21875 C 167.660156 222.75 172.914062 212.027344 181.546875 204.429688 L 329.949219 73.773438 C 338.582031 66.175781 349.878906 62.320312 361.351562 63.046875 C 372.824219 63.773438 383.535156 69.03125 391.128906 77.65625 L 459.824219 155.683594 C 467.417969 164.308594 471.273438 175.601562 470.542969 187.070312 C 469.816406 198.546875 464.554688 209.261719 455.921875 216.863281 L 307.523438 347.515625 C 298.890625 355.117188 287.59375 358.976562 276.121094 358.242188 C 264.648438 357.515625 253.933594 352.257812 246.34375 343.636719 Z M 246.34375 343.636719 " clip-rule="nonzero"/></clipPath><clipPath id="03e02ae20c"><path d="M 274.726562 376.46875 L 148.710938 233.335938 L 362.582031 45.042969 L 488.59375 188.175781 Z M 274.726562 376.46875 " clip-rule="nonzero"/></clipPath><clipPath id="d49ce57415"><path d="M 246.34375 343.636719 L 177.644531 265.605469 C 170.054688 256.984375 166.195312 245.691406 166.929688 234.21875 C 167.660156 222.75 172.914062 212.027344 181.546875 204.429688 L 329.949219 73.773438 C 338.582031 66.175781 349.878906 62.320312 361.351562 63.046875 C 372.824219 63.773438 383.535156 69.03125 391.128906 77.65625 L 459.824219 155.683594 C 467.417969 164.308594 471.273438 175.601562 470.542969 187.070312 C 469.816406 198.546875 464.554688 209.261719 455.921875 216.863281 L 307.523438 347.515625 C 298.890625 355.117188 287.59375 358.976562 276.121094 358.242188 C 264.648438 357.515625 253.933594 352.257812 246.34375 343.636719 Z M 246.34375 343.636719 " clip-rule="nonzero"/></clipPath><clipPath id="4f842877f7"><path d="M 270 180 L 488 180 L 488 377 L 270 377 Z M 270 180 " clip-rule="nonzero"/></clipPath><clipPath id="e308a3b0cf"><path d="M 303.878906 511.171875 L 76.628906 253.058594 L 391.542969 -24.195312 L 618.789062 233.921875 Z M 303.878906 511.171875 " clip-rule="nonzero"/></clipPath><clipPath id="5a955b8b88"><path d="M 538.292969 777.433594 L 76.375 252.765625 L 391.285156 -24.484375 L 853.207031 500.183594 Z M 538.292969 777.433594 " clip-rule="nonzero"/></clipPath><clipPath id="8fca4f0609"><path d="M 538.292969 777.433594 L 76.375 252.765625 L 391.285156 -24.484375 L 853.207031 500.183594 Z M 538.292969 777.433594 " clip-rule="nonzero"/></clipPath><clipPath id="5fcecf8847"><path d="M 349.078125 454.460938 L 263.097656 356.804688 L 471.507812 173.320312 L 557.488281 270.976562 Z M 349.078125 454.460938 " clip-rule="nonzero"/></clipPath><clipPath id="044cd2b3b1"><path d="M 417.601562 376.183594 L 288.535156 376.25 C 281.074219 376.25 274.386719 371.632812 271.746094 364.652344 C 269.113281 357.667969 271.074219 349.78125 276.679688 344.847656 L 457.960938 185.246094 C 463.5625 180.3125 471.632812 179.371094 478.226562 182.867188 C 484.820312 186.367188 488.554688 193.585938 487.609375 200.988281 L 471.191406 329.003906 C 467.734375 355.964844 444.78125 376.171875 417.601562 376.183594 Z M 417.601562 376.183594 " clip-rule="nonzero"/></clipPath><clipPath id="33c3ff3692"><path d="M 349.078125 454.460938 L 263.097656 356.804688 L 471.507812 173.320312 L 557.488281 270.976562 Z M 349.078125 454.460938 " clip-rule="nonzero"/></clipPath><clipPath id="c3996fb2ca"><path d="M 417.601562 376.183594 L 288.535156 376.25 C 281.074219 376.25 274.386719 371.632812 271.746094 364.652344 C 269.113281 357.667969 271.074219 349.78125 276.679688 344.847656 L 457.960938 185.246094 C 463.5625 180.3125 471.632812 179.371094 478.226562 182.867188 C 484.820312 186.367188 488.554688 193.585938 487.609375 200.988281 L 471.191406 329.003906 C 467.734375 355.964844 444.78125 376.171875 417.601562 376.183594 Z M 417.601562 376.183594 " clip-rule="nonzero"/></clipPath><clipPath id="bd27144f31"><path d="M 186 237 L 317 237 L 317 377 L 186 377 Z M 186 237 " clip-rule="nonzero"/></clipPath><clipPath id="c61f82c053"><path d="M 303.878906 511.171875 L 76.628906 253.058594 L 391.542969 -24.195312 L 618.789062 233.921875 Z M 303.878906 511.171875 " clip-rule="nonzero"/></clipPath><clipPath id="943c425cf2"><path d="M 538.292969 777.433594 L 76.375 252.765625 L 391.285156 -24.484375 L 853.207031 500.183594 Z M 538.292969 777.433594 " clip-rule="nonzero"/></clipPath><clipPath id="ce20dd9b85"><path d="M 538.292969 777.433594 L 76.375 252.765625 L 391.285156 -24.484375 L 853.207031 500.183594 Z M 538.292969 777.433594 " clip-rule="nonzero"/></clipPath><clipPath id="3589808e65"><path d="M 285.425781 388.050781 L 175.109375 262.746094 L 217.273438 225.625 L 327.589844 350.929688 Z M 285.425781 388.050781 " clip-rule="nonzero"/></clipPath><clipPath id="504c4e1ba7"><path d="M 306.507812 369.488281 C 294.863281 379.742188 277.117188 378.613281 266.867188 366.96875 L 193.800781 283.980469 C 183.554688 272.339844 184.683594 254.597656 196.328125 244.34375 C 207.96875 234.097656 225.714844 235.21875 235.964844 246.859375 L 309.03125 329.851562 C 319.28125 341.492188 318.148438 359.242188 306.507812 369.488281 Z M 306.507812 369.488281 " clip-rule="nonzero"/></clipPath><clipPath id="5be1c3b9d7"><path d="M 285.425781 388.050781 L 175.109375 262.746094 L 217.273438 225.625 L 327.589844 350.929688 Z M 285.425781 388.050781 " clip-rule="nonzero"/></clipPath><clipPath id="d995bf0dca"><path d="M 306.507812 369.488281 C 294.863281 379.742188 277.117188 378.613281 266.867188 366.96875 L 193.800781 283.980469 C 183.554688 272.339844 184.683594 254.597656 196.328125 244.34375 C 207.96875 234.097656 225.714844 235.21875 235.964844 246.859375 L 309.03125 329.851562 C 319.28125 341.492188 318.148438 359.242188 306.507812 369.488281 Z M 306.507812 369.488281 " clip-rule="nonzero"/></clipPath><clipPath id="f68580d0db"><path d="M 358 86 L 488 86 L 488 226 L 358 226 Z M 358 86 " clip-rule="nonzero"/></clipPath><clipPath id="f8a53e512f"><path d="M 303.878906 511.171875 L 76.628906 253.058594 L 391.542969 -24.195312 L 618.789062 233.921875 Z M 303.878906 511.171875 " clip-rule="nonzero"/></clipPath><clipPath id="70f237d3ae"><path d="M 538.292969 777.433594 L 76.375 252.765625 L 391.285156 -24.484375 L 853.207031 500.183594 Z M 538.292969 777.433594 " clip-rule="nonzero"/></clipPath><clipPath id="c64f13a9b3"><path d="M 538.292969 777.433594 L 76.375 252.765625 L 391.285156 -24.484375 L 853.207031 500.183594 Z M 538.292969 777.433594 " clip-rule="nonzero"/></clipPath><clipPath id="90355fb1d4"><path d="M 456.746094 237.21875 L 346.429688 111.917969 L 388.589844 74.796875 L 498.910156 200.097656 Z M 456.746094 237.21875 " clip-rule="nonzero"/></clipPath><clipPath id="912ce14d53"><path d="M 477.828125 218.660156 C 466.183594 228.910156 448.4375 227.78125 438.1875 216.140625 L 365.121094 133.148438 C 354.875 121.507812 356.003906 103.765625 367.648438 93.515625 C 379.292969 83.261719 397.035156 84.386719 407.285156 96.027344 L 480.351562 179.019531 C 490.597656 190.660156 489.472656 208.40625 477.828125 218.660156 Z M 477.828125 218.660156 " clip-rule="nonzero"/></clipPath><clipPath id="fc26c3f8f3"><path d="M 456.746094 237.21875 L 346.429688 111.917969 L 388.589844 74.796875 L 498.910156 200.097656 Z M 456.746094 237.21875 " clip-rule="nonzero"/></clipPath><clipPath id="120196809e"><path d="M 477.828125 218.660156 C 466.183594 228.910156 448.4375 227.78125 438.1875 216.140625 L 365.121094 133.148438 C 354.875 121.507812 356.003906 103.765625 367.648438 93.515625 C 379.292969 83.261719 397.035156 84.386719 407.285156 96.027344 L 480.351562 179.019531 C 490.597656 190.660156 489.472656 208.40625 477.828125 218.660156 Z M 477.828125 218.660156 " clip-rule="nonzero"/></clipPath><clipPath id="991c3fcbff"><path d="M 459 393 L 619 393 L 619 487 L 459 487 Z M 459 393 " clip-rule="nonzero"/></clipPath><clipPath id="6f869fe591"><path d="M 303.878906 511.171875 L 76.628906 253.058594 L 391.542969 -24.195312 L 618.789062 233.921875 Z M 303.878906 511.171875 " clip-rule="nonzero"/></clipPath><clipPath id="eb57599580"><path d="M 538.292969 777.433594 L 76.375 252.765625 L 391.285156 -24.484375 L 853.207031 500.183594 Z M 538.292969 777.433594 " clip-rule="nonzero"/></clipPath><clipPath id="cd1fac654b"><path d="M 538.292969 777.433594 L 76.375 252.765625 L 391.285156 -24.484375 L 853.207031 500.183594 Z M 538.292969 777.433594 " clip-rule="nonzero"/></clipPath><clipPath id="b477e24168"><path d="M 567.71875 707.269531 L 441.261719 563.628906 L 655.398438 375.101562 L 781.859375 518.738281 Z M 567.71875 707.269531 " clip-rule="nonzero"/></clipPath><clipPath id="bab72a960f"><path d="M 683.964844 408.683594 L 752.65625 486.707031 C 760.253906 495.335938 764.109375 506.628906 763.378906 518.097656 C 762.648438 529.570312 757.386719 540.285156 748.753906 547.886719 L 600.355469 678.539062 C 591.722656 686.136719 580.425781 690 568.957031 689.269531 C 557.484375 688.542969 546.773438 683.289062 539.175781 674.65625 L 470.484375 596.636719 C 462.886719 588.003906 459.027344 576.714844 459.757812 565.242188 C 460.492188 553.769531 465.75 543.058594 474.382812 535.457031 L 622.785156 404.804688 C 631.417969 397.203125 642.710938 393.34375 654.183594 394.070312 C 665.65625 394.796875 676.367188 400.054688 683.964844 408.683594 Z M 683.964844 408.683594 " clip-rule="nonzero"/></clipPath><clipPath id="372af9a196"><path d="M 567.738281 707.253906 L 441.578125 563.960938 L 655.214844 375.875 L 781.371094 519.167969 Z M 567.738281 707.253906 " clip-rule="nonzero"/></clipPath><clipPath id="dcbec58169"><path d="M 683.964844 408.683594 L 752.65625 486.707031 C 760.253906 495.335938 764.109375 506.628906 763.378906 518.097656 C 762.648438 529.570312 757.386719 540.285156 748.753906 547.886719 L 600.355469 678.539062 C 591.722656 686.136719 580.425781 690 568.957031 689.269531 C 557.484375 688.542969 546.773438 683.289062 539.175781 674.65625 L 470.484375 596.636719 C 462.886719 588.003906 459.027344 576.714844 459.757812 565.242188 C 460.492188 553.769531 465.75 543.058594 474.382812 535.457031 L 622.785156 404.804688 C 631.417969 397.203125 642.710938 393.34375 654.183594 394.070312 C 665.65625 394.796875 676.367188 400.054688 683.964844 408.683594 Z M 683.964844 408.683594 " clip-rule="nonzero"/></clipPath><clipPath id="6b20e2508f"><path d="M 442 376 L 619 376 L 619 487 L 442 487 Z M 442 376 " clip-rule="nonzero"/></clipPath><clipPath id="230570213e"><path d="M 303.878906 511.171875 L 76.628906 253.058594 L 391.542969 -24.195312 L 618.789062 233.921875 Z M 303.878906 511.171875 " clip-rule="nonzero"/></clipPath><clipPath id="13c32bc6a1"><path d="M 538.292969 777.433594 L 76.375 252.765625 L 391.285156 -24.484375 L 853.207031 500.183594 Z M 538.292969 777.433594 " clip-rule="nonzero"/></clipPath><clipPath id="81a601c2af"><path d="M 538.292969 777.433594 L 76.375 252.765625 L 391.285156 -24.484375 L 853.207031 500.183594 Z M 538.292969 777.433594 " clip-rule="nonzero"/></clipPath><clipPath id="e301dbaf99"><path d="M 458.796875 578.996094 L 372.820312 481.339844 L 581.230469 297.855469 L 667.203125 395.511719 Z M 458.796875 578.996094 " clip-rule="nonzero"/></clipPath><clipPath id="39416ecf9a"><path d="M 512.703125 376.132812 L 641.769531 376.070312 C 649.238281 376.0625 655.917969 380.6875 658.558594 387.664062 C 661.191406 394.644531 659.226562 402.53125 653.625 407.464844 L 472.34375 567.066406 C 466.738281 572 458.667969 572.945312 452.082031 569.449219 C 445.488281 565.953125 441.753906 558.734375 442.699219 551.332031 L 459.113281 423.3125 C 462.570312 396.347656 485.519531 376.144531 512.703125 376.132812 Z M 512.703125 376.132812 " clip-rule="nonzero"/></clipPath><clipPath id="565e4aefcb"><path d="M 458.792969 578.996094 L 372.820312 481.339844 L 581.230469 297.855469 L 667.203125 395.511719 Z M 458.792969 578.996094 " clip-rule="nonzero"/></clipPath><clipPath id="3124185634"><path d="M 512.703125 376.132812 L 641.769531 376.070312 C 649.238281 376.0625 655.917969 380.6875 658.558594 387.664062 C 661.191406 394.644531 659.226562 402.53125 653.625 407.464844 L 472.34375 567.066406 C 466.738281 572 458.667969 572.945312 452.082031 569.449219 C 445.488281 565.953125 441.753906 558.734375 442.699219 551.332031 L 459.113281 423.3125 C 462.570312 396.347656 485.519531 376.144531 512.703125 376.132812 Z M 512.703125 376.132812 " clip-rule="nonzero"/></clipPath><clipPath id="68bf699a6d"><path d="M 614 375 L 619 375 L 619 487 L 614 487 Z M 614 375 " clip-rule="nonzero"/></clipPath><clipPath id="7630a20e75"><path d="M 303.878906 511.171875 L 76.628906 253.058594 L 391.542969 -24.195312 L 618.789062 233.921875 Z M 303.878906 511.171875 " clip-rule="nonzero"/></clipPath><clipPath id="7e73d33123"><path d="M 538.292969 777.433594 L 76.375 252.765625 L 391.285156 -24.484375 L 853.207031 500.183594 Z M 538.292969 777.433594 " clip-rule="nonzero"/></clipPath><clipPath id="e6022dd949"><path d="M 538.292969 777.433594 L 76.375 252.765625 L 391.285156 -24.484375 L 853.207031 500.183594 Z M 538.292969 777.433594 " clip-rule="nonzero"/></clipPath><clipPath id="6005e98597"><path d="M 713.03125 526.6875 L 602.71875 401.390625 L 644.882812 364.269531 L 755.195312 489.566406 Z M 713.03125 526.6875 " clip-rule="nonzero"/></clipPath><clipPath id="43b3f573ca"><path d="M 623.800781 382.828125 C 635.445312 372.578125 653.191406 373.707031 663.433594 385.34375 L 736.5 468.332031 C 746.75 479.972656 745.621094 497.722656 733.976562 507.972656 C 722.339844 518.222656 704.585938 517.09375 694.335938 505.453125 L 621.273438 422.464844 C 611.027344 410.828125 612.160156 393.078125 623.800781 382.828125 Z M 623.800781 382.828125 " clip-rule="nonzero"/></clipPath><clipPath id="fe13f3988b"><path d="M 712.90625 526.542969 L 602.71875 401.390625 L 644.882812 364.269531 L 755.070312 489.425781 Z M 712.90625 526.542969 " clip-rule="nonzero"/></clipPath><clipPath id="58c4fd3689"><path d="M 623.800781 382.828125 C 635.445312 372.578125 653.191406 373.707031 663.433594 385.34375 L 736.5 468.332031 C 746.75 479.972656 745.621094 497.722656 733.976562 507.972656 C 722.339844 518.222656 704.585938 517.09375 694.335938 505.453125 L 621.273438 422.464844 C 611.027344 410.828125 612.160156 393.078125 623.800781 382.828125 Z M 623.800781 382.828125 " clip-rule="nonzero"/></clipPath></defs><g transform="matrix(1, 0, 0, 1, 531, 18)"><g clip-path="url(#047a0b5641)"><g fill="#3e535b" fill-opacity="1"><g transform="translate(0.211548, 357.757012)"><g><path d="M 7.9375 0 L 7.9375 -3.453125 L 12.0625 -4.828125 C 20.34375 -7.585938 24.484375 -13.332031 24.484375 -22.0625 L 24.484375 -206.21875 C 24.484375 -211.039062 23.675781 -214.601562 22.0625 -216.90625 C 20.457031 -219.207031 17.359375 -220.929688 12.765625 -222.078125 L 7.59375 -223.453125 L 7.59375 -226.90625 L 68.28125 -241.734375 L 73.796875 -238.625 L 72.421875 -190.015625 L 72.421875 -146.90625 C 80.460938 -153.570312 89.140625 -159.257812 98.453125 -163.96875 C 107.765625 -168.6875 118.050781 -171.046875 129.3125 -171.046875 C 144.257812 -171.046875 156.15625 -166.789062 165 -158.28125 C 173.851562 -149.78125 178.28125 -136.675781 178.28125 -118.96875 L 178.28125 -21.71875 C 178.28125 -17.125 179.195312 -13.445312 181.03125 -10.6875 C 182.875 -7.925781 186.097656 -5.859375 190.703125 -4.484375 L 193.453125 -3.453125 L 193.453125 0 L 112.765625 0 L 112.765625 -3.453125 L 116.90625 -4.484375 C 125.175781 -7.242188 129.3125 -13.101562 129.3125 -22.0625 L 129.3125 -130.34375 C 129.3125 -139.539062 127.757812 -145.863281 124.65625 -149.3125 C 121.550781 -152.757812 116.09375 -154.484375 108.28125 -154.484375 C 103.21875 -154.484375 97.695312 -153.503906 91.71875 -151.546875 C 85.75 -149.597656 79.660156 -146.210938 73.453125 -141.390625 L 73.453125 -21.375 C 73.453125 -12.414062 77.585938 -6.671875 85.859375 -4.140625 L 88.625 -3.453125 L 88.625 0 Z M 7.9375 0 "/></g></g></g><g fill="#3e535b" fill-opacity="1"><g transform="translate(190.910097, 357.757012)"><g><path d="M 48.28125 -188.96875 C 40.457031 -188.96875 33.84375 -191.4375 28.4375 -196.375 C 23.039062 -201.320312 20.34375 -207.59375 20.34375 -215.1875 C 20.34375 -223 23.039062 -229.316406 28.4375 -234.140625 C 33.84375 -238.972656 40.457031 -241.390625 48.28125 -241.390625 C 56.09375 -241.390625 62.640625 -238.972656 67.921875 -234.140625 C 73.210938 -229.316406 75.859375 -223 75.859375 -215.1875 C 75.859375 -207.59375 73.210938 -201.320312 67.921875 -196.375 C 62.640625 -191.4375 56.09375 -188.96875 48.28125 -188.96875 Z M 7.59375 0 L 7.59375 -3.453125 L 12.421875 -4.828125 C 17.015625 -6.203125 20.171875 -8.269531 21.890625 -11.03125 C 23.617188 -13.789062 24.484375 -17.46875 24.484375 -22.0625 L 24.484375 -130 C 24.484375 -134.832031 23.617188 -138.453125 21.890625 -140.859375 C 20.171875 -143.273438 17.015625 -144.945312 12.421875 -145.875 L 7.59375 -146.90625 L 7.59375 -150.359375 L 70.6875 -170.703125 L 74.140625 -167.25 L 73.109375 -118.28125 L 73.109375 -21.71875 C 73.109375 -17.125 73.96875 -13.445312 75.6875 -10.6875 C 77.414062 -7.925781 80.460938 -5.859375 84.828125 -4.484375 L 88.28125 -3.453125 L 88.28125 0 Z M 7.59375 0 "/></g></g></g><g fill="#3e535b" fill-opacity="1"><g transform="translate(278.15549, 357.757012)"><g><path d="M 7.9375 0 L 7.9375 -3.453125 L 12.0625 -4.828125 C 20.34375 -7.585938 24.484375 -13.332031 24.484375 -22.0625 L 24.484375 -206.5625 C 24.484375 -211.15625 23.5625 -214.660156 21.71875 -217.078125 C 19.882812 -219.492188 16.664062 -221.273438 12.0625 -222.421875 L 7.59375 -223.453125 L 7.59375 -226.90625 L 70.6875 -241.734375 L 74.828125 -238.625 L 73.453125 -190.359375 L 73.453125 -72.421875 C 73.453125 -63.910156 73.507812 -55.457031 73.625 -47.0625 C 73.738281 -38.675781 73.796875 -30.34375 73.796875 -22.0625 C 73.796875 -17.46875 74.710938 -13.734375 76.546875 -10.859375 C 78.390625 -7.984375 81.492188 -5.859375 85.859375 -4.484375 L 90.34375 -3.453125 L 90.34375 0 Z M 7.9375 0 "/></g></g></g><g fill="#3e535b" fill-opacity="1"><g transform="translate(367.469994, 357.757012)"><g><path d="M 7.9375 0 L 7.9375 -3.453125 L 12.0625 -4.828125 C 20.34375 -7.585938 24.484375 -13.332031 24.484375 -22.0625 L 24.484375 -206.5625 C 24.484375 -211.15625 23.5625 -214.660156 21.71875 -217.078125 C 19.882812 -219.492188 16.664062 -221.273438 12.0625 -222.421875 L 7.59375 -223.453125 L 7.59375 -226.90625 L 70.6875 -241.734375 L 74.828125 -238.625 L 73.453125 -190.359375 L 73.453125 -72.421875 C 73.453125 -63.910156 73.507812 -55.457031 73.625 -47.0625 C 73.738281 -38.675781 73.796875 -30.34375 73.796875 -22.0625 C 73.796875 -17.46875 74.710938 -13.734375 76.546875 -10.859375 C 78.390625 -7.984375 81.492188 -5.859375 85.859375 -4.484375 L 90.34375 -3.453125 L 90.34375 0 Z M 7.9375 0 "/></g></g></g><g fill="#3e535b" fill-opacity="1"><g transform="translate(456.784497, 357.757012)"><g><path d="M 72.421875 5.171875 C 57.703125 5.171875 46.257812 1.492188 38.09375 -5.859375 C 29.9375 -13.210938 25.859375 -24.9375 25.859375 -41.03125 L 25.859375 -158.96875 L 2.0625 -158.96875 L 2.0625 -162.421875 L 10.34375 -163.796875 C 17.46875 -165.410156 23.613281 -167.710938 28.78125 -170.703125 C 33.957031 -173.691406 39.078125 -177.710938 44.140625 -182.765625 L 72.421875 -214.140625 L 75.859375 -214.140625 L 74.828125 -165.875 L 113.453125 -165.875 L 113.453125 -158.96875 L 74.484375 -158.96875 L 74.484375 -34.828125 C 74.484375 -26.785156 76.265625 -20.691406 79.828125 -16.546875 C 83.390625 -12.410156 87.929688 -10.34375 93.453125 -10.34375 C 98.273438 -10.34375 102.523438 -11.550781 106.203125 -13.96875 C 109.890625 -16.382812 113.570312 -19.660156 117.25 -23.796875 L 120.703125 -20.34375 C 116.097656 -12.53125 109.769531 -6.320312 101.71875 -1.71875 C 93.675781 2.871094 83.910156 5.171875 72.421875 5.171875 Z M 72.421875 5.171875 "/></g></g></g><g fill="#3e535b" fill-opacity="1"><g transform="translate(571.962245, 357.757012)"><g><path d="M 6.890625 0 L 6.890625 -3.453125 L 12.0625 -4.828125 C 16.664062 -6.203125 19.828125 -8.269531 21.546875 -11.03125 C 23.273438 -13.789062 24.140625 -17.351562 24.140625 -21.71875 L 24.140625 -129.65625 C 24.140625 -134.71875 23.273438 -138.453125 21.546875 -140.859375 C 19.828125 -143.273438 16.664062 -144.945312 12.0625 -145.875 L 6.890625 -147.25 L 6.890625 -150.703125 L 66.203125 -170.703125 L 69.65625 -167.25 L 72.765625 -137.59375 L 72.765625 -134.828125 C 75.984375 -141.265625 80.175781 -147.1875 85.34375 -152.59375 C 90.519531 -158 96.269531 -162.425781 102.59375 -165.875 C 108.914062 -169.320312 115.179688 -171.046875 121.390625 -171.046875 C 130.117188 -171.046875 136.78125 -168.628906 141.375 -163.796875 C 145.976562 -158.972656 148.28125 -152.882812 148.28125 -145.53125 C 148.28125 -137.707031 146.035156 -131.671875 141.546875 -127.421875 C 137.066406 -123.171875 131.722656 -121.046875 125.515625 -121.046875 C 115.867188 -121.046875 107.363281 -125.875 100 -135.53125 L 99.3125 -136.21875 C 97.007812 -139.4375 94.363281 -141.21875 91.375 -141.5625 C 88.394531 -141.90625 85.640625 -140.46875 83.109375 -137.25 C 80.804688 -135.175781 78.90625 -132.703125 77.40625 -129.828125 C 75.914062 -126.953125 74.484375 -123.675781 73.109375 -120 L 73.109375 -23.796875 C 73.109375 -14.597656 77.128906 -8.847656 85.171875 -6.546875 L 96.21875 -3.453125 L 96.21875 0 Z M 6.890625 0 "/></g></g></g><g fill="#3e535b" fill-opacity="1"><g transform="translate(709.209964, 357.757012)"><g><path d="M 94.140625 5.171875 C 76.671875 5.171875 61.5 1.550781 48.625 -5.6875 C 35.75 -12.925781 25.804688 -23.210938 18.796875 -36.546875 C 11.785156 -49.878906 8.28125 -65.515625 8.28125 -83.453125 C 8.28125 -101.378906 12.015625 -116.894531 19.484375 -130 C 26.953125 -143.101562 37.179688 -153.21875 50.171875 -160.34375 C 63.160156 -167.476562 77.816406 -171.046875 94.140625 -171.046875 C 110.460938 -171.046875 125.0625 -167.535156 137.9375 -160.515625 C 150.8125 -153.503906 160.984375 -143.445312 168.453125 -130.34375 C 175.921875 -117.238281 179.65625 -101.609375 179.65625 -83.453125 C 179.65625 -65.285156 176.148438 -49.59375 169.140625 -36.375 C 162.128906 -23.15625 152.242188 -12.925781 139.484375 -5.6875 C 126.722656 1.550781 111.609375 5.171875 94.140625 5.171875 Z M 94.140625 -1.71875 C 102.191406 -1.71875 108.628906 -4.015625 113.453125 -8.609375 C 118.285156 -13.210938 121.789062 -21.375 123.96875 -33.09375 C 126.15625 -44.820312 127.25 -61.378906 127.25 -82.765625 C 127.25 -104.367188 126.15625 -121.035156 123.96875 -132.765625 C 121.789062 -144.492188 118.285156 -152.65625 113.453125 -157.25 C 108.628906 -161.84375 102.191406 -164.140625 94.140625 -164.140625 C 86.097656 -164.140625 79.601562 -161.84375 74.65625 -157.25 C 69.71875 -152.65625 66.15625 -144.492188 63.96875 -132.765625 C 61.78125 -121.035156 60.6875 -104.367188 60.6875 -82.765625 C 60.6875 -61.378906 61.78125 -44.820312 63.96875 -33.09375 C 66.15625 -21.375 69.71875 -13.210938 74.65625 -8.609375 C 79.601562 -4.015625 86.097656 -1.71875 94.140625 -1.71875 Z M 94.140625 -1.71875 "/></g></g></g></g></g><g clip-path="url(#47d08e5108)"><g clip-path="url(#cb1537aa89)"><g clip-path="url(#d0807feb1d)"><g clip-path="url(#afc5e517d1)"><g clip-path="url(#4cf1ed269a)"><g clip-path="url(#6bfa8bd5a0)"><g clip-path="url(#03e02ae20c)"><g clip-path="url(#d49ce57415)"><path fill="#3e535b" d="M 274.980469 376.164062 L 149.007812 233.078125 L 362.582031 45.042969 L 488.558594 188.132812 Z M 274.980469 376.164062 " fill-opacity="1" fill-rule="nonzero"/></g></g></g></g></g></g></g></g><g clip-path="url(#4f842877f7)"><g clip-path="url(#e308a3b0cf)"><g clip-path="url(#5a955b8b88)"><g clip-path="url(#8fca4f0609)"><g clip-path="url(#5fcecf8847)"><g clip-path="url(#044cd2b3b1)"><g clip-path="url(#33c3ff3692)"><g clip-path="url(#c3996fb2ca)"><path fill="#3e535b" d="M 338.78125 487.414062 L 240.957031 376.296875 L 493.648438 153.824219 L 591.476562 264.941406 Z M 338.78125 487.414062 " fill-opacity="1" fill-rule="nonzero"/></g></g></g></g></g></g></g></g><g clip-path="url(#bd27144f31)"><g clip-path="url(#c61f82c053)"><g clip-path="url(#943c425cf2)"><g clip-path="url(#ce20dd9b85)"><g clip-path="url(#3589808e65)"><g clip-path="url(#504c4e1ba7)"><g clip-path="url(#5be1c3b9d7)"><g clip-path="url(#d995bf0dca)"><path fill="#3e535b" d="M 285.425781 388.050781 L 175.253906 262.910156 L 217.417969 225.789062 L 327.589844 350.929688 Z M 285.425781 388.050781 " fill-opacity="1" fill-rule="nonzero"/></g></g></g></g></g></g></g></g><g clip-path="url(#f68580d0db)"><g clip-path="url(#f8a53e512f)"><g clip-path="url(#70f237d3ae)"><g clip-path="url(#c64f13a9b3)"><g clip-path="url(#90355fb1d4)"><g clip-path="url(#912ce14d53)"><g clip-path="url(#fc26c3f8f3)"><g clip-path="url(#120196809e)"><path fill="#3e535b" d="M 456.746094 237.21875 L 346.574219 112.082031 L 388.734375 74.960938 L 498.910156 200.097656 Z M 456.746094 237.21875 " fill-opacity="1" fill-rule="nonzero"/></g></g></g></g></g></g></g></g><g clip-path="url(#991c3fcbff)"><g clip-path="url(#6f869fe591)"><g clip-path="url(#eb57599580)"><g clip-path="url(#cd1fac654b)"><g clip-path="url(#b477e24168)"><g clip-path="url(#bab72a960f)"><g clip-path="url(#372af9a196)"><g clip-path="url(#dcbec58169)"><path fill="#3e535b" d="M 567.71875 707.269531 L 441.75 564.1875 L 655.328125 376.15625 L 781.296875 519.234375 Z M 567.71875 707.269531 " fill-opacity="1" fill-rule="nonzero"/></g></g></g></g></g></g></g></g><g clip-path="url(#6b20e2508f)"><g clip-path="url(#230570213e)"><g clip-path="url(#13c32bc6a1)"><g clip-path="url(#81a601c2af)"><g clip-path="url(#e301dbaf99)"><g clip-path="url(#39416ecf9a)"><g clip-path="url(#565e4aefcb)"><g clip-path="url(#3124185634)"><path fill="#3e535b" d="M 436.652344 598.488281 L 338.832031 487.378906 L 591.523438 264.90625 L 689.347656 376.015625 Z M 436.652344 598.488281 " fill-opacity="1" fill-rule="nonzero"/></g></g></g></g></g></g></g></g><g clip-path="url(#68bf699a6d)"><g clip-path="url(#7630a20e75)"><g clip-path="url(#7e73d33123)"><g clip-path="url(#e6022dd949)"><g clip-path="url(#6005e98597)"><g clip-path="url(#43b3f573ca)"><g clip-path="url(#fe13f3988b)"><g clip-path="url(#58c4fd3689)"><path fill="#3e535b" d="M 712.886719 526.523438 L 602.71875 401.390625 L 644.882812 364.269531 L 755.050781 489.402344 Z M 712.886719 526.523438 " fill-opacity="1" fill-rule="nonzero"/></g></g></g></g></g></g></g></g></svg>