<svg xmlns="http://www.w3.org/2000/svg" xmlns:xlink="http://www.w3.org/1999/xlink" width="1000" zoomAndPan="magnify" viewBox="0 0 750 165.000002" height="220" preserveAspectRatio="xMidYMid meet" version="1.0"><defs><g/><clipPath id="7f6e0ece4b"><path d="M 4.347656 4.171875 L 35.414062 4.171875 L 35.414062 159.933594 L 4.347656 159.933594 Z M 4.347656 4.171875 " clip-rule="nonzero"/></clipPath><clipPath id="c621433106"><path d="M 106.667969 4.171875 L 137.738281 4.171875 L 137.738281 159.933594 L 106.667969 159.933594 Z M 106.667969 4.171875 " clip-rule="nonzero"/></clipPath><clipPath id="bb2a70167c"><path d="M 34.816406 71.039062 L 107.339844 71.039062 L 107.339844 89.332031 L 34.816406 89.332031 Z M 34.816406 71.039062 " clip-rule="nonzero"/></clipPath><clipPath id="0dcb2e65a4"><path d="M 107.285156 71.039062 L 107.285156 89.332031 L 71.050781 72.570312 L 34.816406 89.332031 L 34.816406 71.039062 Z M 107.285156 71.039062 " clip-rule="nonzero"/></clipPath></defs><g clip-path="url(#7f6e0ece4b)"><path fill="#3d535b" d="M 4.347656 4.171875 L 35.414062 4.171875 L 35.414062 159.882812 L 4.347656 159.882812 Z M 4.347656 4.171875 " fill-opacity="1" fill-rule="nonzero"/></g><g clip-path="url(#c621433106)"><path fill="#3d535b" d="M 106.667969 4.171875 L 137.738281 4.171875 L 137.738281 159.882812 L 106.667969 159.882812 Z M 106.667969 4.171875 " fill-opacity="1" fill-rule="nonzero"/></g><g clip-path="url(#bb2a70167c)"><g clip-path="url(#0dcb2e65a4)"><path fill="#3d535b" d="M 34.816406 71.039062 L 107.265625 71.039062 L 107.265625 89.332031 L 34.816406 89.332031 Z M 34.816406 71.039062 " fill-opacity="1" fill-rule="nonzero"/></g></g><g fill="#3d535b" fill-opacity="1"><g transform="translate(150.566774, 158.920458)"><g><path d="M 51.015625 3.328125 C 43.773438 3.328125 37.34375 2.363281 31.71875 0.4375 C 26.101562 -1.476562 21.332031 -4.097656 17.40625 -7.421875 C 13.488281 -10.753906 10.53125 -14.640625 8.53125 -19.078125 C 6.539062 -23.515625 5.546875 -28.25 5.546875 -33.28125 C 5.546875 -38.75 6.539062 -43.882812 8.53125 -48.6875 C 10.53125 -53.5 13.488281 -57.601562 17.40625 -61 C 21.332031 -64.40625 26.101562 -67.101562 31.71875 -69.09375 C 37.34375 -71.09375 43.773438 -72.09375 51.015625 -72.09375 C 56.046875 -72.09375 60.703125 -71.648438 64.984375 -70.765625 C 69.273438 -69.878906 73.050781 -68.84375 76.3125 -67.65625 C 80.15625 -66.320312 83.554688 -64.84375 86.515625 -63.21875 L 86.515625 -68.765625 C 86.515625 -78.816406 83.925781 -86.503906 78.75 -91.828125 C 73.570312 -97.160156 66.546875 -99.828125 57.671875 -99.828125 C 52.648438 -99.828125 48.175781 -99.007812 44.25 -97.375 C 40.332031 -95.75 36.96875 -93.976562 34.15625 -92.0625 C 30.90625 -89.695312 28.023438 -87.109375 25.515625 -84.296875 L 16.640625 -92.0625 C 19.597656 -96.195312 23.296875 -99.894531 27.734375 -103.15625 C 31.578125 -105.957031 36.304688 -108.503906 41.921875 -110.796875 C 47.546875 -113.085938 54.273438 -114.234375 62.109375 -114.234375 C 70.390625 -114.234375 77.820312 -113.050781 84.40625 -110.6875 C 90.988281 -108.320312 96.570312 -105.101562 101.15625 -101.03125 C 105.738281 -96.96875 109.25 -92.164062 111.6875 -86.625 C 114.125 -81.082031 115.34375 -75.128906 115.34375 -68.765625 L 115.34375 -28.84375 C 115.34375 -23.8125 115.488281 -19.484375 115.78125 -15.859375 C 116.082031 -12.234375 116.457031 -9.238281 116.90625 -6.875 C 117.5 -4.21875 118.085938 -1.925781 118.671875 0 L 89.84375 0 C 89.394531 -1.625 89.023438 -3.25 88.734375 -4.875 C 88.429688 -6.207031 88.171875 -7.648438 87.953125 -9.203125 C 87.734375 -10.753906 87.625 -12.125 87.625 -13.3125 L 86.515625 -13.3125 C 84.148438 -10.207031 81.265625 -7.394531 77.859375 -4.875 C 74.898438 -2.8125 71.238281 -0.929688 66.875 0.765625 C 62.519531 2.472656 57.234375 3.328125 51.015625 3.328125 Z M 57.671875 -11.09375 C 62.109375 -11.09375 66.101562 -12.015625 69.65625 -13.859375 C 73.207031 -15.710938 76.238281 -17.75 78.75 -19.96875 C 81.5625 -22.625 84.148438 -25.582031 86.515625 -28.84375 L 86.515625 -49.90625 C 84.148438 -51.238281 81.5625 -52.5 78.75 -53.6875 C 76.238281 -54.71875 73.207031 -55.640625 69.65625 -56.453125 C 66.101562 -57.265625 62.109375 -57.671875 57.671875 -57.671875 C 51.460938 -57.671875 46.210938 -55.414062 41.921875 -50.90625 C 37.640625 -46.394531 35.5 -40.519531 35.5 -33.28125 C 35.5 -27.0625 37.640625 -21.804688 41.921875 -17.515625 C 46.210938 -13.234375 51.460938 -11.09375 57.671875 -11.09375 Z M 57.671875 -11.09375 "/></g></g></g><g fill="#3d535b" fill-opacity="1"><g transform="translate(280.332321, 158.920458)"><g><path d="M 51.015625 3.328125 C 43.773438 3.328125 37.34375 2.363281 31.71875 0.4375 C 26.101562 -1.476562 21.332031 -4.097656 17.40625 -7.421875 C 13.488281 -10.753906 10.53125 -14.640625 8.53125 -19.078125 C 6.539062 -23.515625 5.546875 -28.25 5.546875 -33.28125 C 5.546875 -38.75 6.539062 -43.882812 8.53125 -48.6875 C 10.53125 -53.5 13.488281 -57.601562 17.40625 -61 C 21.332031 -64.40625 26.101562 -67.101562 31.71875 -69.09375 C 37.34375 -71.09375 43.773438 -72.09375 51.015625 -72.09375 C 56.046875 -72.09375 60.703125 -71.648438 64.984375 -70.765625 C 69.273438 -69.878906 73.050781 -68.84375 76.3125 -67.65625 C 80.15625 -66.320312 83.554688 -64.84375 86.515625 -63.21875 L 86.515625 -68.765625 C 86.515625 -78.816406 83.925781 -86.503906 78.75 -91.828125 C 73.570312 -97.160156 66.546875 -99.828125 57.671875 -99.828125 C 52.648438 -99.828125 48.175781 -99.007812 44.25 -97.375 C 40.332031 -95.75 36.96875 -93.976562 34.15625 -92.0625 C 30.90625 -89.695312 28.023438 -87.109375 25.515625 -84.296875 L 16.640625 -92.0625 C 19.597656 -96.195312 23.296875 -99.894531 27.734375 -103.15625 C 31.578125 -105.957031 36.304688 -108.503906 41.921875 -110.796875 C 47.546875 -113.085938 54.273438 -114.234375 62.109375 -114.234375 C 70.390625 -114.234375 77.820312 -113.050781 84.40625 -110.6875 C 90.988281 -108.320312 96.570312 -105.101562 101.15625 -101.03125 C 105.738281 -96.96875 109.25 -92.164062 111.6875 -86.625 C 114.125 -81.082031 115.34375 -75.128906 115.34375 -68.765625 L 115.34375 -28.84375 C 115.34375 -23.8125 115.488281 -19.484375 115.78125 -15.859375 C 116.082031 -12.234375 116.457031 -9.238281 116.90625 -6.875 C 117.5 -4.21875 118.085938 -1.925781 118.671875 0 L 89.84375 0 C 89.394531 -1.625 89.023438 -3.25 88.734375 -4.875 C 88.429688 -6.207031 88.171875 -7.648438 87.953125 -9.203125 C 87.734375 -10.753906 87.625 -12.125 87.625 -13.3125 L 86.515625 -13.3125 C 84.148438 -10.207031 81.265625 -7.394531 77.859375 -4.875 C 74.898438 -2.8125 71.238281 -0.929688 66.875 0.765625 C 62.519531 2.472656 57.234375 3.328125 51.015625 3.328125 Z M 57.671875 -11.09375 C 62.109375 -11.09375 66.101562 -12.015625 69.65625 -13.859375 C 73.207031 -15.710938 76.238281 -17.75 78.75 -19.96875 C 81.5625 -22.625 84.148438 -25.582031 86.515625 -28.84375 L 86.515625 -49.90625 C 84.148438 -51.238281 81.5625 -52.5 78.75 -53.6875 C 76.238281 -54.71875 73.207031 -55.640625 69.65625 -56.453125 C 66.101562 -57.265625 62.109375 -57.671875 57.671875 -57.671875 C 51.460938 -57.671875 46.210938 -55.414062 41.921875 -50.90625 C 37.640625 -46.394531 35.5 -40.519531 35.5 -33.28125 C 35.5 -27.0625 37.640625 -21.804688 41.921875 -17.515625 C 46.210938 -13.234375 51.460938 -11.09375 57.671875 -11.09375 Z M 57.671875 -11.09375 "/></g></g></g><g fill="#3d535b" fill-opacity="1"><g transform="translate(410.097869, 158.920458)"><g><path d="M 51.015625 3.328125 C 42.585938 3.328125 35.34375 1.960938 29.28125 -0.765625 C 23.21875 -3.503906 18.191406 -6.578125 14.203125 -9.984375 C 9.460938 -13.828125 5.46875 -18.265625 2.21875 -23.296875 L 11.09375 -31.0625 C 13.601562 -27.207031 16.707031 -23.878906 20.40625 -21.078125 C 23.363281 -18.554688 27.0625 -16.257812 31.5 -14.1875 C 35.9375 -12.125 40.960938 -11.09375 46.578125 -11.09375 C 55.015625 -11.09375 61.375 -13.015625 65.65625 -16.859375 C 69.945312 -20.703125 72.09375 -25.4375 72.09375 -31.0625 C 72.09375 -34.019531 70.539062 -36.457031 67.4375 -38.375 C 64.332031 -40.300781 60.410156 -42.113281 55.671875 -43.8125 C 50.941406 -45.507812 45.878906 -47.28125 40.484375 -49.125 C 35.085938 -50.976562 30.019531 -53.269531 25.28125 -56 C 20.550781 -58.738281 16.632812 -62.175781 13.53125 -66.3125 C 10.425781 -70.457031 8.875 -75.710938 8.875 -82.078125 C 8.875 -86.210938 9.832031 -90.203125 11.75 -94.046875 C 13.675781 -97.898438 16.632812 -101.34375 20.625 -104.375 C 24.625 -107.40625 29.617188 -109.804688 35.609375 -111.578125 C 41.597656 -113.347656 48.582031 -114.234375 56.5625 -114.234375 C 63.8125 -114.234375 70.097656 -113.195312 75.421875 -111.125 C 80.742188 -109.0625 85.253906 -106.773438 88.953125 -104.265625 C 93.097656 -101.304688 96.722656 -97.976562 99.828125 -94.28125 L 90.953125 -86.515625 C 88.429688 -89.023438 85.617188 -91.242188 82.515625 -93.171875 C 79.859375 -94.796875 76.71875 -96.3125 73.09375 -97.71875 C 69.46875 -99.125 65.4375 -99.828125 61 -99.828125 C 53.757812 -99.828125 48.25 -98.125 44.46875 -94.71875 C 40.695312 -91.320312 38.8125 -87.109375 38.8125 -82.078125 C 38.8125 -79.117188 40.363281 -76.675781 43.46875 -74.75 C 46.582031 -72.832031 50.503906 -71.019531 55.234375 -69.3125 C 59.960938 -67.613281 65.023438 -65.835938 70.421875 -63.984375 C 75.828125 -62.140625 80.894531 -59.847656 85.625 -57.109375 C 90.351562 -54.378906 94.269531 -50.90625 97.375 -46.6875 C 100.488281 -42.476562 102.046875 -37.269531 102.046875 -31.0625 C 102.046875 -26.625 101.007812 -22.332031 98.9375 -18.1875 C 96.863281 -14.050781 93.71875 -10.390625 89.5 -7.203125 C 85.289062 -4.023438 79.96875 -1.476562 73.53125 0.4375 C 67.101562 2.363281 59.597656 3.328125 51.015625 3.328125 Z M 51.015625 3.328125 "/></g></g></g><g fill="#3d535b" fill-opacity="1"><g transform="translate(518.790376, 158.920458)"><g><path d="M 64.328125 3.328125 C 57.972656 3.328125 52.207031 2.253906 47.03125 0.109375 C 41.851562 -2.035156 37.414062 -4.992188 33.71875 -8.765625 C 30.019531 -12.535156 27.171875 -17.082031 25.171875 -22.40625 C 23.179688 -27.726562 22.1875 -33.566406 22.1875 -39.921875 L 22.1875 -94.28125 L 3.328125 -94.28125 L 3.328125 -110.921875 L 24.40625 -110.921875 L 38.8125 -143.078125 L 51.015625 -143.078125 L 51.015625 -110.921875 L 84.296875 -110.921875 L 80.96875 -94.28125 L 51.015625 -94.28125 L 51.015625 -39.921875 C 51.015625 -29.867188 52.9375 -22.550781 56.78125 -17.96875 C 60.632812 -13.382812 65.367188 -11.09375 70.984375 -11.09375 C 74.390625 -11.09375 77.382812 -11.644531 79.96875 -12.75 C 82.550781 -13.863281 84.734375 -15.160156 86.515625 -16.640625 C 88.585938 -18.265625 90.4375 -20.113281 92.0625 -22.1875 L 99.828125 -13.3125 C 97.460938 -10.207031 94.578125 -7.394531 91.171875 -4.875 C 88.210938 -2.8125 84.550781 -0.929688 80.1875 0.765625 C 75.820312 2.472656 70.535156 3.328125 64.328125 3.328125 Z M 64.328125 3.328125 "/></g></g></g><g fill="#3d535b" fill-opacity="1"><g transform="translate(618.610006, 158.920458)"><g><path d="M 70.984375 3.328125 C 61.816406 3.328125 53.382812 1.773438 45.6875 -1.328125 C 38 -4.429688 31.34375 -8.644531 25.71875 -13.96875 C 20.101562 -19.300781 15.707031 -25.550781 12.53125 -32.71875 C 9.351562 -39.894531 7.765625 -47.472656 7.765625 -55.453125 C 7.765625 -63.734375 9.28125 -71.457031 12.3125 -78.625 C 15.34375 -85.800781 19.519531 -92.015625 24.84375 -97.265625 C 30.164062 -102.515625 36.488281 -106.65625 43.8125 -109.6875 C 51.132812 -112.71875 59.082031 -114.234375 67.65625 -114.234375 C 76.238281 -114.234375 84.1875 -112.753906 91.5 -109.796875 C 98.820312 -106.847656 105.144531 -102.785156 110.46875 -97.609375 C 115.789062 -92.429688 119.96875 -86.398438 123 -79.515625 C 126.03125 -72.640625 127.546875 -65.359375 127.546875 -57.671875 C 127.546875 -56.191406 127.472656 -54.859375 127.328125 -53.671875 C 127.179688 -52.492188 127.035156 -51.460938 126.890625 -50.578125 C 126.734375 -49.546875 126.582031 -48.582031 126.4375 -47.6875 L 37.703125 -47.6875 C 38.296875 -42.363281 39.628906 -37.484375 41.703125 -33.046875 C 43.773438 -28.609375 46.472656 -24.765625 49.796875 -21.515625 C 53.128906 -18.265625 56.972656 -15.710938 61.328125 -13.859375 C 65.691406 -12.015625 70.390625 -11.09375 75.421875 -11.09375 C 81.035156 -11.09375 85.988281 -12.125 90.28125 -14.1875 C 94.570312 -16.257812 98.269531 -18.554688 101.375 -21.078125 C 104.925781 -23.878906 108.109375 -27.207031 110.921875 -31.0625 L 119.78125 -23.296875 C 116.53125 -18.265625 112.539062 -13.828125 107.8125 -9.984375 C 103.8125 -6.578125 98.78125 -3.503906 92.71875 -0.765625 C 86.65625 1.960938 79.410156 3.328125 70.984375 3.328125 Z M 97.609375 -64.328125 C 97.609375 -69.648438 96.753906 -74.492188 95.046875 -78.859375 C 93.347656 -83.222656 91.128906 -86.957031 88.390625 -90.0625 C 85.660156 -93.164062 82.484375 -95.566406 78.859375 -97.265625 C 75.234375 -98.972656 71.5 -99.828125 67.65625 -99.828125 C 63.8125 -99.828125 60.078125 -98.972656 56.453125 -97.265625 C 52.828125 -95.566406 49.609375 -93.164062 46.796875 -90.0625 C 43.992188 -86.957031 41.773438 -83.222656 40.140625 -78.859375 C 38.515625 -74.492188 37.703125 -69.648438 37.703125 -64.328125 Z M 97.609375 -64.328125 "/></g></g></g></svg>